<svg width="120" height="53" viewBox="0 0 120 53" fill="none" xmlns="http://www.w3.org/2000/svg">
<path d="M28.7101 43.2195L27.9162 44.0125H27.7839L27.6516 44.1447H27.5193L27.387 44.2768H27.2547L27.1224 44.409H26.8578L26.7255 44.5412H26.5932L26.4609 44.6733H26.1963L26.064 44.8055H25.9317L25.7994 44.9377H25.6671L25.5348 45.0699H25.4025L25.2701 45.202H25.1378L24.2117 46.1272V46.2594L23.8148 46.6559V46.7881L23.5502 47.0524V47.1846L22.8887 47.8454V48.3741H23.021L23.2856 48.1098H24.2117L24.344 47.9776H26.064L26.1963 47.8454H26.5932L26.7255 47.7132H26.8578L26.9901 47.5811H27.1224L27.2547 47.4489H27.387L27.6516 47.1846H27.7839L28.4455 46.5237V46.3916L28.7101 46.1272V45.995L28.8424 45.8629V45.5985L28.9747 45.4664V43.8803L28.8424 43.7482V43.3517L28.7101 43.2195Z" fill="black"/>
<path d="M15.7441 43.2195V43.616L15.6118 43.7482V45.3342L15.7441 45.4664V45.8629L15.8764 45.995V46.1272L16.0087 46.2594V46.3916L16.9349 47.3167H17.0672L17.3318 47.5811H17.4641L17.5964 47.7132H17.861L17.9933 47.8454H18.2579L18.3902 47.9776H19.4486L19.5809 48.1098H20.7717L20.904 48.2419H21.1686L21.3009 48.3741H21.5655V47.9776L21.0363 47.4489V47.3167L20.904 47.1846V47.0524L20.6394 46.7881V46.6559L20.5071 46.5237V46.3916L19.3163 45.202H19.184L19.0517 45.0699H18.9194L18.6548 44.8055H18.5225L18.3902 44.6733H18.1256L17.9933 44.5412H17.7287L17.5964 44.409H17.4641L17.3318 44.2768H17.1995L17.0672 44.1447H16.9349L16.8026 44.0125H16.6703L16.0087 43.3517H15.8764L15.7441 43.2195Z" fill="black"/>
<path d="M73.8259 24.3192V24.4514L73.6936 24.5836V24.7157L73.9582 24.9801H74.752L74.8843 25.1122H75.2813L75.9428 25.7731V26.1696L76.0751 26.3018V29.0773L76.2074 29.2095V33.9676L76.0751 34.0998V42.4264L75.9428 42.5586V43.8803L75.8105 44.0125V44.1447L75.2813 44.6733H74.8843L74.752 44.8055H73.9582L73.8259 44.9377V45.3342H81.2349L81.3673 45.4663H82.1611L82.2934 45.3342H82.4257V44.8055H81.2349L81.1026 44.6733H80.5734L80.4411 44.5412H80.3088L79.9119 44.1447V43.7481L79.7796 43.616V42.1621L79.6473 42.0299V27.0948L79.7796 26.9626V26.0374L79.9119 25.9052V25.6409L80.4411 25.1122H80.7057L80.838 24.9801H81.6319L81.7642 24.8479V24.4514L81.6319 24.3192H79.7796L79.6473 24.4514H76.0751L75.9428 24.3192H73.8259Z" fill="black"/>
<path d="M118.809 24.187L118.677 24.3192H112.856L112.723 24.4514H108.622L108.49 24.3192H106.108L105.976 24.4514V24.8479H106.108L106.24 24.98H106.902L107.034 25.1122H107.431L107.563 25.2444H107.696L107.828 25.3765H107.96L108.225 25.6409V25.773L108.357 25.9052V26.3017L108.49 26.4339V42.2942L108.357 42.4264V43.7481L108.225 43.8803V44.1446L107.828 44.5411H107.696L107.563 44.6733H107.299L107.167 44.8055H106.373L106.24 44.9376V45.3341H113.12L113.253 45.4663H119.074L119.339 45.202V45.0698L119.471 44.9376V44.6733L119.603 44.5411V44.0124L119.735 43.8803V43.2194L119.868 43.0873V42.2942L120 42.1621V41.2369L119.868 41.1047H119.603L119.471 41.2369V41.3691L119.339 41.5012V41.7656L119.206 41.8977V42.0299L119.074 42.1621V42.4264L118.942 42.5586V42.6908L118.148 43.4838H117.883L117.751 43.6159H117.354L117.222 43.7481H113.914L113.782 43.6159H113.253L113.12 43.4838H112.988L112.856 43.3516H112.723L112.459 43.0873V42.9551L112.326 42.8229V42.4264L112.194 42.2942V35.0249L112.326 34.8927H115.237L115.369 35.0249H116.56L116.692 35.1571H117.089L117.222 35.2893H117.354L117.751 35.6858V35.8179L117.883 35.9501V36.611L118.016 36.7431V37.0075H118.148L118.28 37.1396L118.545 36.8753V36.2144L118.677 36.0823V34.3641L118.809 34.2319V32.778L118.677 32.6459H118.545L118.016 33.1745H117.751L117.619 33.3067H116.825L116.692 33.4389H112.326L112.194 33.3067V26.0374L112.326 25.9052H116.031L116.163 26.0374H116.957L117.089 26.1696H117.354L117.486 26.3017H117.619L118.148 26.8304V26.9626L118.28 27.0947V28.1521L118.412 28.2843H118.809L118.942 28.1521V27.0947L119.074 26.9626V26.1696L119.206 26.0374V24.7157L119.339 24.5835V24.4514L119.074 24.187H118.809Z" fill="black"/>
<path d="M94.0683 24.0548L93.936 24.187H93.1422L93.0099 24.3191H92.4807L92.3484 24.4513H92.0838L91.9515 24.5835H91.5545L91.4222 24.7157H91.1576L91.0253 24.8478H90.7607L90.6284 24.98H90.4961L90.3638 25.1122H90.2315L90.0992 25.2443H89.9669L89.8346 25.3765H89.7023L89.57 25.5087H89.4377L89.3054 25.6408H89.1731L88.9085 25.9052H88.7762L88.3792 26.3017H88.2469L86.3947 28.1521V28.2842L85.9978 28.6807V28.8129L85.6009 29.2094V29.3416L85.4686 29.4738V29.6059L85.3362 29.7381V29.8703L85.0716 30.1346V30.3989L84.9393 30.5311V30.6633L84.807 30.7955V31.0598L84.6747 31.192V31.4563L84.5424 31.5885V31.8528L84.4101 31.985V32.5137L84.2778 32.6458V33.1745L84.1455 33.3067V36.0822L84.2778 36.2144V36.8753L84.4101 37.0074V37.5361L84.5424 37.6683V38.0648L84.6747 38.197V38.4613L84.807 38.5935V38.8578L84.9393 38.99V39.1221L85.0716 39.2543V39.3865L85.2039 39.5186V39.6508L85.3362 39.783V39.9152L85.4686 40.0473V40.1795L85.6009 40.3117V40.4438L85.7332 40.576V40.7082L85.9978 40.9725V41.1047L86.3947 41.5012V41.6334L87.85 43.0872H87.9823L88.2469 43.3516H88.3792L88.6439 43.6159H88.7762L89.0408 43.8802H89.1731L89.3054 44.0124H89.4377L89.57 44.1446H89.7023L89.8346 44.2768H89.9669L90.0992 44.4089H90.3638L90.4961 44.5411H90.6284L90.7607 44.6733H91.0253L91.1576 44.8054H91.4222L91.5545 44.9376H91.9515L92.0838 45.0698H92.3484L92.4807 45.2019H92.8776L93.0099 45.3341H93.6714L93.8037 45.4663H94.4652L94.5975 45.5985H96.0529L96.1852 45.7306H98.3021L98.4344 45.5985H99.7574L99.8897 45.4663H100.684L100.816 45.3341H101.477L101.61 45.2019H101.874L102.007 45.0698H102.139L102.271 44.9376H102.404L102.8 44.5411V44.4089L102.933 44.2768V44.0124L103.065 43.8802V43.3516L103.197 43.2194V42.8229L103.33 42.6907V42.162L103.462 42.0299V41.369L103.594 41.2369V40.0473L103.462 39.9152H103.197L103.065 40.0473V40.1795L102.933 40.3117V40.576L102.8 40.7082V40.9725L102.668 41.1047V41.2369L102.536 41.369V41.5012L102.404 41.6334V41.7655L102.139 42.0299V42.162L101.213 43.0872H101.08L100.948 43.2194H100.816L100.684 43.3516H100.551L100.419 43.4837H100.154L100.022 43.6159H99.7574L99.6251 43.7481H99.2282L99.0959 43.8802H98.1698L98.0375 44.0124H96.5821L96.4498 43.8802H95.5237L95.3914 43.7481H94.9945L94.8622 43.6159H94.5975L94.4652 43.4837H94.2006L94.0683 43.3516H93.936L93.8037 43.2194H93.5391L93.4068 43.0872H93.2745L93.1422 42.9551H93.0099L92.8776 42.8229H92.7453L92.4807 42.5586H92.3484L92.2161 42.4264H92.0838L91.6869 42.0299H91.5545L89.7023 40.1795V40.0473L89.4377 39.783V39.6508L89.1731 39.3865V39.2543L89.0408 39.1221V38.99L88.9085 38.8578V38.5935L88.7762 38.4613V38.3291L88.6439 38.197V37.9326L88.5115 37.8004V37.5361L88.3792 37.4039V37.0074L88.2469 36.8753V36.2144L88.1146 36.0822V32.6458L88.2469 32.5137V31.8528L88.3792 31.7206V31.3241L88.5115 31.192V30.9276L88.6439 30.7955V30.5311L88.7762 30.3989V30.1346L88.9085 30.0024V29.8703L89.0408 29.7381V29.4738L89.1731 29.3416V29.2094L89.3054 29.0773V28.9451L89.57 28.6807V28.5486L89.7023 28.4164V28.2842L90.0992 27.8877V27.7556L90.893 26.9625H91.0253L91.4222 26.566H91.5545L91.6869 26.4339H91.8192L91.9515 26.3017H92.0838L92.2161 26.1695H92.4807L92.613 26.0374H92.7453L92.8776 25.9052H93.2745L93.4068 25.773H93.8037L93.936 25.6408H94.8622L94.9945 25.5087H96.8467L96.979 25.6408H97.7729L97.9052 25.773H98.4344L98.5667 25.9052H98.9636L99.0959 26.0374H99.3605L99.4928 26.1695H99.7574L99.8897 26.3017H100.154L100.287 26.4339H100.419L100.551 26.566H100.684L100.816 26.6982H100.948L101.08 26.8304H101.213L101.477 27.0947H101.61L102.007 27.4912V27.6234L102.139 27.7556V27.8877L102.271 28.0199V28.1521L102.404 28.2842V28.5486L102.536 28.6807V29.0773L102.668 29.2094V30.0024L102.8 30.1346V30.2668H103.33V29.8703L103.462 29.7381V27.8877L103.594 27.7556V26.1695L103.727 26.0374V25.1122L103.462 24.8478H103.065L102.933 24.7157H102.404L102.271 24.5835H101.874L101.742 24.4513H101.213L101.08 24.3191H100.287L100.154 24.187H99.2282L99.0959 24.0548H94.0683Z" fill="black"/>
<path d="M51.2018 23.9227L51.0694 24.0549V28.4165L50.9371 28.5487V41.2369L50.8048 41.3691V43.8803L50.6725 44.0125V44.1447L50.1433 44.6734H49.8787L49.7464 44.8055H48.688L48.5557 44.9377V45.202L48.688 45.3342H54.9063L55.0386 45.4664H55.4355L55.5678 45.3342H55.7001L55.8324 45.202L55.7001 45.0699V44.8055H54.774L54.6417 44.6734H54.1124L53.9801 44.5412H53.8478L53.7155 44.409H53.5832L53.4509 44.2768V44.1447L53.3186 44.0125V43.616L53.1863 43.4838V41.8978L53.054 41.7656V36.2145L52.9217 36.0823V30.2669L53.054 30.1347L53.7155 30.7955V30.9277L54.9063 32.1172V32.2494L56.3616 33.7033V33.8354L60.86 38.3292V38.4614L61.2569 38.8579H61.3892L61.5215 38.9901V39.1222L67.8721 45.4664H68.0044L68.269 45.7307H68.5336L68.6659 45.5985V44.0125L68.7982 43.8803V39.1222L68.9305 38.9901V32.7781L69.0628 32.6459V27.8878L69.1951 27.7556V26.0374L69.3274 25.9053V25.7731L69.4597 25.6409V25.5088L69.8567 25.1123H70.1213L70.2536 24.9801H70.7828L70.9151 24.8479H71.0474V24.4514L70.9151 24.3192H69.3274L69.1951 24.4514H66.4167L66.2844 24.3192H64.2999L64.1676 24.4514V24.8479L64.2999 24.9801H64.9614L65.0937 25.1123H65.4906L65.6229 25.2444H65.8875L66.0198 25.3766H66.1521L66.4167 25.6409V25.7731L66.5491 25.9053V26.0374L66.6814 26.1696V27.0948L66.8137 27.227V30.399L66.946 30.5312V35.818L67.0783 35.9502V39.6509L66.946 39.7831L66.4167 39.2544V39.1222L64.2999 37.0075V36.8753L57.4201 30.0025V29.8704L52.3925 24.8479V24.7157L51.5987 23.9227H51.2018Z" fill="black"/>
<path d="M22.3593 16.389L22.227 16.5212H22.0947L21.8301 16.7855H20.6394L20.5071 16.9177H19.5809L19.4486 17.0499H19.3163L19.184 17.1821H19.0517L18.9194 17.3142H18.2579V17.7107L18.3902 17.8429V18.5038L18.5225 18.6359V18.7681L18.6548 18.9003V19.0324H18.7871L18.9194 19.1646H19.184L19.3163 19.0324H20.3747L20.5071 19.1646H20.7717L21.0363 19.4289V20.0898L20.904 20.222V20.6185L20.5071 21.015V21.1471L20.2424 21.4115V21.5437L20.1101 21.6758V22.0723L19.9778 22.2045V22.3367L19.8455 22.4688V22.601L19.7132 22.7332V22.8653L19.5809 22.9975V23.2619L19.4486 23.394V23.5262L19.0517 23.9227H18.9194L18.7871 24.0549H18.5225L18.3902 23.9227H18.2579L17.7287 23.394H17.5964L16.5379 22.3367L16.6702 22.2045V20.7506L16.8025 20.6185V20.222L16.9348 20.0898V19.5611L17.0671 19.4289V19.1646L17.1994 19.0324V18.3716L17.0671 18.2394V18.3716L16.9348 18.5038V18.6359L16.8025 18.7681L16.4056 18.3716V18.2394L15.7441 17.5786H15.6118L15.4795 17.4464H14.6857L14.5534 17.5786H14.4211L14.2887 17.7107H14.1564L14.0241 17.8429H13.8918L11.9073 19.8254V19.9576L11.6427 20.222V20.6185L11.775 20.7506V21.6758L11.6427 21.808V21.9402L11.3781 22.2045V22.3367L11.2458 22.4688V22.601L11.1134 22.7332V22.8653L10.9811 22.9975V23.1297L10.8488 23.2619V23.5262L10.7165 23.6584V23.9227L10.5842 24.0549V24.3192L10.7165 24.4514V24.7157L10.8488 24.8479V24.9801L10.9811 25.1122V25.2444L11.1134 25.3766V25.6409L11.2458 25.7731V26.3018L11.3781 26.4339V27.0948L11.5104 27.2269V28.1521L11.6427 28.2843V28.6808L11.775 28.813V29.606L11.9073 29.7382V30.6634L12.0396 30.7955V31.192L12.1719 31.3242V31.8529L12.3042 31.985V32.2494L12.4365 32.3816V32.9102L12.5688 33.0424V33.5711L12.7011 33.7033V34.2319L12.8334 34.3641V34.6284L13.098 34.8928H13.3626L13.6272 34.6284H13.7595L13.8918 34.4963H14.0241L14.1564 34.3641H14.2887L15.6118 33.0424V32.9102L16.0087 32.5137V32.3816L16.2733 32.1172V31.985L16.4056 31.8529V31.7207L16.6702 31.4564V31.3242L17.1994 30.7955H17.3317V27.8878L17.4641 27.7556L17.5964 27.8878V28.1521L17.7287 28.2843V30.1347V30.0025L17.861 29.8703V29.7382L18.1256 29.4738V29.3417L18.2579 29.2095V29.0773L18.7871 28.5486H18.9194L19.0517 28.4165V28.2843L19.184 28.1521L19.3163 28.2843V28.6808L19.4486 28.813V28.9451L19.5809 29.0773V29.3417L19.7132 29.4738V29.7382L19.5809 29.8703V30.1347L19.7132 30.2668V30.6634L19.4486 30.9277H19.184V31.5885L19.0517 31.7207V32.3816L18.9194 32.5137V33.1746L18.7871 33.3067V33.8354L18.6548 33.9676V34.7606L18.5225 34.8928V35.1571L18.3902 35.2893V35.5536L18.2579 35.6858V35.818L18.3902 35.9501L18.5225 35.818H19.4486L19.9778 35.2893V35.1571L20.1101 35.0249V34.8928L20.2424 34.7606V34.6284L20.5071 34.3641V34.2319L20.6394 34.0998V33.9676L20.7717 33.8354L20.904 33.9676V34.6284L21.0363 34.7606V35.4215L21.1686 35.5536V35.9501L21.0363 36.0823V37.2718L20.7717 37.5362H20.6394L20.5071 37.6683H19.7132L19.5809 37.5362H19.184L19.0517 37.404H18.7871L18.6548 37.2718H18.3902L18.2579 37.1397H17.9933L17.861 37.0075H17.7287L17.4641 36.7432H17.3317L17.0671 36.4788H16.9348L16.8025 36.3466H16.6702L16.5379 36.2145H15.3472L15.2149 36.3466H15.0826L14.818 36.611H14.6857L14.5534 36.7432V37.0075H14.818L14.9503 37.1397H16.0087L16.141 37.2718L16.0087 37.404H15.6118L15.4795 37.5362H15.2149L15.0826 37.6683H14.818L14.5534 37.9327V38.4614L14.6857 38.5935H14.818L14.9503 38.7257H16.4056L16.5379 38.5935H16.9348L17.0671 38.4614H17.1994L17.3317 38.3292H17.4641L17.5964 38.197H17.9933L18.1256 38.0648H19.4486L19.5809 38.197H20.2424L20.3747 38.3292V38.4614L20.2424 38.5935V38.7257L19.5809 39.3865H19.4486L18.5225 40.3117V41.3691L18.6548 41.5013V41.7656H18.7871L19.0517 41.5013H19.3163L19.4486 41.3691H19.5809L19.7132 41.2369H20.1101L20.2424 41.1047L20.3747 41.2369V41.7656L20.5071 41.8978V42.0299L20.6394 42.1621H21.1686L21.6978 41.6334L21.8301 41.7656V42.0299L21.6978 42.1621V42.5586L21.8301 42.6908V42.823L21.9624 42.9551H22.0947L22.227 43.0873H22.4916L22.6239 42.9551V42.823L22.7562 42.6908V41.6334L22.8885 41.5013L23.0208 41.6334V41.7656L23.4177 42.1621H23.947L24.0793 42.0299V41.3691L24.2116 41.2369H24.7408L24.8731 41.3691H25.1377L25.27 41.5013H25.5346L25.7992 41.7656H25.9315L26.0638 41.6334V40.3117L25.5346 39.7831H25.4023L25.0054 39.3865H24.8731L24.2116 38.7257V38.4614L24.0793 38.3292L24.2116 38.197H25.4023L25.5346 38.0648H26.0638L26.1961 38.197H26.8577L26.99 38.3292H27.2546L27.3869 38.4614H27.6515L27.7838 38.5935H28.0484L28.1807 38.7257H29.5037L29.636 38.5935H29.9007L30.1653 38.3292V38.197L30.033 38.0648V37.9327L29.9007 37.8005H29.7684L29.636 37.6683H29.5037L29.3714 37.5362H28.9745L28.8422 37.404H28.7099L28.5776 37.2718L28.7099 37.1397H29.5037L29.636 37.0075H30.033V36.7432L29.7684 36.4788H29.636L29.5037 36.3466H29.2391L29.1068 36.2145H28.0484L27.9161 36.3466H27.7838L27.6515 36.4788H27.5192L27.3869 36.611H27.2546L26.99 36.8753H26.8577L26.7254 37.0075H26.5931L26.4607 37.1397H26.1961L26.0638 37.2718H25.7992L25.6669 37.404H25.5346L25.4023 37.5362H24.7408L24.6085 37.6683H24.4762L24.3439 37.5362H23.947L23.6824 37.2718V37.0075L23.5501 36.8753V34.6284L23.8147 34.3641L24.0793 34.6284V34.8928L24.2116 35.0249V35.1571L24.3439 35.2893V35.4215L24.4762 35.5536V35.6858L24.7408 35.9501H25.5346L25.6669 35.818H26.5931V35.6858L26.4607 35.5536V35.4215L26.3284 35.2893V35.1571L26.1961 35.0249V34.7606L26.0638 34.6284V34.3641L25.9315 34.2319V32.9102L25.7992 32.7781V31.985L25.9315 31.8529V31.3242L26.0638 31.192V31.0599L25.9315 30.9277H25.7992L25.6669 30.7955H25.5346L25.1377 30.399V30.1347H25.0054L24.8731 30.0025V29.8703L25.0054 29.7382V29.4738L25.1377 29.3417V28.9451L25.27 28.813V28.5486L25.4023 28.4165H25.6669L26.3284 29.0773V29.2095L26.4607 29.3417V29.606L26.5931 29.7382V29.8703L26.7254 30.0025V30.2668L26.8577 30.399V30.5312L26.99 30.6634H27.1223L27.7838 31.3242V31.4564L28.0484 31.7207V31.8529L28.1807 31.985V30.2668L28.313 30.1347V28.4165L28.4453 28.2843V27.8878L28.5776 27.7556L28.7099 27.8878V31.4564L28.5776 31.5885V32.6459L28.7099 32.7781H28.8422L29.7684 33.7033V33.8354L29.9007 33.9676H30.033L30.4299 34.3641H30.5622L30.9591 34.7606H31.2237L31.356 34.8928H31.4883L31.6206 34.7606L31.4883 34.6284V34.4963L31.6206 34.3641H31.7529L31.8852 34.2319V34.0998L32.0175 33.9676V33.4389L32.1498 33.3067V32.6459L32.2821 32.5137V32.1172L32.4144 31.985V31.4564L32.5467 31.3242V30.5312L32.679 30.399V29.4738L32.8114 29.3417V28.4165L32.9437 28.2843V28.1521L33.076 28.02V27.2269L33.2083 27.0948V26.3018L33.3406 26.1696V25.7731L33.4729 25.6409V25.3766L33.6052 25.2444V25.1122L33.7375 24.9801V24.7157L33.8698 24.5836V24.3192L34.0021 24.187V24.0549L33.8698 23.9227V23.6584L33.7375 23.5262V23.1297L33.6052 22.9975V22.8653L33.4729 22.7332V22.4688L33.3406 22.3367V22.2045L33.2083 22.0723V21.9402L33.076 21.808V21.5437L32.9437 21.4115V21.1471L32.8114 21.015V19.8254L31.6206 18.6359V18.5038L31.0914 17.9751H30.9591L30.6945 17.7107H30.5622L30.4299 17.5786H30.2976L30.1653 17.4464H29.1068L28.4453 18.1072V18.2394L28.313 18.3716V18.5038L28.1807 18.6359V18.7681L27.9161 19.0324L27.7838 18.9003V18.6359L27.6515 18.7681V19.2968H27.7838L27.9161 19.4289V19.6933L27.7838 19.8254V22.3367L27.6515 22.4688V22.601L26.8577 23.394H26.7254L26.4607 23.6584H26.3284L26.1961 23.7905H26.0638L25.9315 23.6584H25.7992L25.6669 23.5262V23.394L25.4023 23.1297V22.9975L25.1377 22.7332V22.4688L25.0054 22.3367V21.1471L24.8731 21.015V20.8828L24.7408 20.7506V20.4863L24.6085 20.3541V20.0898L24.4762 19.9576V19.6933L24.3439 19.5611V18.1072L24.4762 17.9751V17.8429L24.6085 17.7107V17.5786L24.8731 17.3142V17.0499L24.7408 16.9177H23.6824L23.5501 16.7855H22.8885L22.4916 16.389H22.3593Z" fill="black"/>
<path d="M33.473 11.1023V11.2345L33.8699 11.631V11.7631L34.0022 11.8953V12.0275L34.5314 12.5562V12.6883L34.796 12.9527V13.0848L35.0606 13.3492V13.6135L35.1929 13.7457V14.1422L35.0606 14.2744V14.4065L35.1929 14.5387H35.4576L35.5899 14.6709H35.7222L35.8545 14.803H35.9868L36.6483 15.4639H36.7806L37.0452 15.7282H37.1775L37.3098 15.8604H37.4421L38.8975 17.3143V17.4464L39.1621 17.7108V17.8429L39.2944 17.9751V18.1073L39.4267 18.2395V18.3716L39.559 18.5038V18.636L39.6913 18.7681V19.1646L39.8236 19.2968V19.5611L39.6913 19.6933L39.559 19.5611V19.429L39.4267 19.2968V19.1646L39.0298 18.7681H38.7652L38.6329 18.636H38.1036L37.9713 18.5038H37.839L37.1775 17.8429H36.9129L36.7806 17.9751V18.2395L36.6483 18.3716V19.429L36.7806 19.5611V19.6933L36.9129 19.8255V19.9577L37.0452 20.0898V20.222L37.1775 20.3542V20.4863L37.4421 20.7507H37.5744L37.7067 20.8828H37.839L38.8975 21.9402V22.0724L39.1621 22.3367V22.4689L39.2944 22.601V22.8654L39.4267 22.9976V23.1297L39.559 23.2619V23.6584L39.6913 23.7906V24.0549L39.8236 24.1871V24.7158L39.9559 24.8479V25.5088L40.0882 25.6409V25.7731L39.9559 25.9053L39.6913 25.6409V25.5088L39.559 25.3766V25.1123L39.4267 24.9801V24.8479L39.1621 24.5836V24.4514L38.6329 23.9227V23.7906L38.1036 23.2619V23.1297L37.0452 22.0724V21.9402H36.9129L36.7806 21.808L36.6483 21.9402V22.8654L36.7806 22.9976V23.1297L37.0452 23.3941V23.6584L37.1775 23.7906V24.0549L37.3098 24.1871V24.4514L37.4421 24.5836V24.7158L37.5744 24.8479V25.1123L37.7067 25.2444V25.3766L37.839 25.5088V25.6409L37.9713 25.7731V25.9053L38.1036 26.0375V26.3018L38.2359 26.434V26.6983L38.3682 26.8305V26.9626L38.5006 27.0948V27.227L38.7652 27.4913V27.6235L38.8975 27.7557V27.8878L39.0298 28.02V28.1522L39.1621 28.2843V28.813L39.2944 28.9452V29.8704L39.1621 30.0025V30.3991L39.0298 30.5312V30.7956L38.8975 30.9277V31.3242L38.7652 31.4564V31.7207L38.6329 31.8529V32.2494L38.5006 32.3816V32.5138L38.3682 32.6459L38.2359 32.5138V30.7956L38.3682 30.6634V30.5312L38.2359 30.3991V29.8704L38.1036 29.7382V29.4739L37.9713 29.3417V29.2095L37.839 29.0774V28.9452L37.7067 28.813V28.6808H37.5744L37.3098 28.4165V28.2843L37.0452 28.02H36.7806V28.2843L36.6483 28.4165V28.5487L36.3837 28.813V28.9452L35.9868 29.3417V29.4739L35.8545 29.606V30.7956L35.9868 30.9277V31.5886L36.1191 31.7207V32.9103L36.2514 33.0424V33.5711L36.3837 33.7033V33.9676L36.516 34.0998V34.3641L36.6483 34.4963V34.7606L36.7806 34.8928V36.2145L36.6483 36.3467V36.611L36.516 36.7432V37.0075L36.3837 37.1397V37.2719L36.2514 37.404V37.6684L36.1191 37.8005V37.9327L35.9868 38.0649L35.8545 37.9327V37.404L35.9868 37.2719V35.9502L35.8545 35.818V35.4215L35.7222 35.2893V35.1572L35.5899 35.025V34.8928L35.3252 34.6285V34.232H35.0606L34.1345 35.1572V35.2893L34.0022 35.4215V35.5537L33.7376 35.818V36.2145L33.6053 36.3467V38.8579L33.7376 38.9901V39.2544L33.8699 39.3866V39.5188L34.0022 39.6509V40.7083L33.8699 40.8404V41.1048L33.7376 41.237V41.3691L33.6053 41.5013V41.6335L33.473 41.7656V41.8978L33.3407 42.03V42.1621L33.2084 42.2943V42.4265L33.0761 42.5587V42.6908L32.8115 42.9552L32.6792 42.823V41.7656L32.5469 41.6335V41.5013L32.4146 41.3691V41.237H32.2822L31.8853 40.8404H31.753L31.6207 40.7083H31.3561L30.9592 41.1048V41.237L30.2977 41.8978V42.03L30.1654 42.1621V42.2943L30.0331 42.4265V42.5587L29.9008 42.6908V44.0125L30.0331 44.1447V45.0699L29.9008 45.202V45.5986L29.7685 45.7307V45.8629L29.6362 45.9951V46.1272L29.5039 46.2594V46.3916L29.3716 46.5237V46.6559L28.71 47.3168H28.5777L28.4454 47.4489H28.3131L28.1808 47.5811H28.0485L27.9162 47.7133H27.7839L27.6516 47.8454H27.5193L27.387 47.9776H27.2547L27.1224 48.1098H26.8578L26.7255 48.2419H26.5932L26.4609 48.3741H26.3286L26.1963 48.5063H26.0639L25.9316 48.6385H25.667L25.5347 48.7706H25.2701L25.1378 48.9028H24.6086L24.4763 49.035H22.624L22.4917 49.1671H21.6979L21.5656 49.035H19.8456L19.7133 48.9028H19.1841L19.0518 48.7706H18.7872L18.6549 48.6385H18.3903L18.258 48.5063H18.1257L17.9934 48.3741H17.8611L17.7288 48.2419H17.5965L17.4642 48.1098H17.3319L17.1996 47.9776H17.0673L16.9349 47.8454H16.8026L16.6703 47.7133H16.538L16.4057 47.5811H16.2734L16.1411 47.4489H16.0088L15.7442 47.1846H15.6119L15.215 46.7881V46.6559L15.0827 46.5237V46.2594L14.9504 46.1272V45.9951L14.8181 45.8629V45.5986L14.6858 45.4664V45.3342L14.5535 45.202V44.1447L14.6858 44.0125V42.6908L14.5535 42.5587V42.4265L14.4212 42.2943V42.1621L14.0243 41.7656V41.6335L13.0981 40.7083H12.9658L12.7012 40.9726H12.5689L12.4366 41.1048H12.3043L12.172 41.237V41.3691L12.0397 41.5013V41.6335L11.9074 41.7656V42.9552L12.0397 43.0873V43.2195L11.9074 43.3517L11.6428 43.0873V42.9552L11.5105 42.823V42.6908L11.3782 42.5587V42.4265L11.2459 42.2943V42.1621L11.1136 42.03V41.8978L10.9813 41.7656V41.6335L10.849 41.5013V41.237L10.7166 41.1048V39.6509L10.849 39.5188V39.3866L10.9813 39.2544V38.0649L11.1136 37.9327V37.2719L10.9813 37.1397V36.0823L10.849 35.9502V35.818L10.7166 35.6858V35.5537L10.5843 35.4215V35.2893L10.0551 34.7606V34.6285L9.65821 34.232H9.39361L9.2613 34.3641V34.7606L9.129 34.8928V35.025L8.99669 35.1572V35.2893L8.86439 35.4215V35.5537L8.73208 35.6858V35.9502L8.59978 36.0823V37.6684L8.46747 37.8005L8.33517 37.6684V37.404L8.20287 37.2719V37.1397L8.07056 37.0075V36.8754L7.93826 36.7432V36.4789L7.80595 36.3467V35.025L7.93826 34.8928V34.6285L8.07056 34.4963V34.232L8.20287 34.0998V33.9676L8.33517 33.8355V33.3068L8.46747 33.1746V31.8529L8.59978 31.7207V31.0599L8.73208 30.9277V29.4739L8.46747 29.2095V29.0774L8.20287 28.813V28.6808L7.93826 28.4165V28.2843L7.80595 28.1522V28.02H7.54134L7.01213 28.5487V28.6808L6.74752 28.9452V29.0774L6.61521 29.2095V29.606L6.48291 29.7382V29.8704L6.35061 30.0025V31.7207L6.48291 31.8529V32.9103L6.35061 33.0424L6.2183 32.9103V32.6459L6.086 32.5138V32.3816L5.95369 32.2494V31.9851L5.82139 31.8529V31.5886L5.68908 31.4564V31.1921L5.55678 31.0599V30.6634L5.42448 30.5312V28.5487L5.55678 28.4165V28.1522L5.68908 28.02V27.8878L5.82139 27.7557V27.6235L6.2183 27.227V27.0948L6.35061 26.9626V26.6983L6.48291 26.5661V26.434L6.61521 26.3018V26.0375L6.74752 25.9053V25.7731L6.87982 25.6409V25.3766L7.01213 25.2444V25.1123L7.14443 24.9801V24.7158L7.27674 24.5836V24.3193L7.40904 24.1871V23.9227L7.54134 23.7906V23.5262L7.80595 23.2619V23.1297L8.07056 22.8654V22.4689L7.93826 22.3367V22.2045L7.67365 21.9402L7.27674 22.3367V22.4689L7.14443 22.601H7.01213L6.74752 22.8654V22.9976L6.086 23.6584V23.7906L5.82139 24.0549V24.1871L5.55678 24.4514V24.5836L5.29217 24.8479V24.9801L5.15987 25.1123V25.2444L5.02756 25.3766V25.5088L4.89526 25.6409V25.7731L4.76295 25.9053L4.63065 25.7731V25.2444L4.76295 25.1123V24.3193L4.89526 24.1871V23.7906L5.02756 23.6584V23.3941L5.15987 23.2619V23.1297L5.29217 22.9976V22.8654L5.42448 22.7332V22.601L5.55678 22.4689V22.3367L5.82139 22.0724V21.9402L6.74752 21.015H6.87982L7.01213 20.8828H7.14443L7.54134 20.4863V20.3542L7.67365 20.222V19.9577L7.80595 19.8255V19.6933L7.93826 19.5611V18.2395L7.80595 18.1073V17.9751L7.67365 17.8429H7.40904L6.61521 18.636H5.95369L5.82139 18.7681H5.68908L5.55678 18.9003H5.42448L5.15987 19.1646V19.2968L5.02756 19.429V19.6933L4.89526 19.8255V20.222L4.76295 20.3542V20.6185L4.63065 20.7507L4.49835 20.6185V20.0898L4.63065 19.9577V19.5611L4.76295 19.429V19.2968L4.89526 19.1646V18.9003L5.02756 18.7681V18.5038L5.15987 18.3716V18.2395L5.29217 18.1073V17.9751L5.42448 17.8429V17.7108L5.68908 17.4464V17.3143L6.086 16.9178V16.7856L7.14443 15.7282H7.27674L7.67365 15.3317H7.80595L8.07056 15.0674H8.20287L8.33517 14.9352H8.46747L8.59978 14.803H8.86439L8.99669 14.6709H9.129L9.2613 14.5387H9.39361L9.65821 14.2744V14.1422L9.52591 14.01V13.3492L10.1874 12.6883V12.5562L10.452 12.2918V12.1597L10.849 11.7631V11.631L11.1136 11.3666L10.9813 11.2345H10.452L10.3197 11.3666H10.0551L9.92282 11.4988H9.2613L9.129 11.631H8.73208L8.59978 11.7631H8.46747L8.33517 11.8953H8.20287L8.07056 12.0275H7.93826L7.67365 12.2918H7.54134L6.61521 13.217V13.3492L6.35061 13.6135V13.7457L6.086 14.01V14.1422L5.55678 14.6709V14.803L5.29217 15.0674V15.1996L5.15987 15.3317L5.02756 15.1996V14.803L5.15987 14.6709V14.4065L5.29217 14.2744V13.8779L5.42448 13.7457V13.6135L5.68908 13.3492V13.0848L5.82139 12.9527V12.8205L5.68908 12.6883V12.424L5.55678 12.2918V12.1597L5.29217 11.8953H5.02756L4.23374 12.6883V12.8205L4.10143 12.9527V13.0848L3.96913 13.217V13.6135L3.83682 13.7457V14.1422L3.70452 14.2744V14.803L3.57222 14.9352V18.1073L3.70452 18.2395V19.1646L3.83682 19.2968V20.0898L3.96913 20.222V21.9402L3.83682 22.0724L3.70452 21.9402V21.5437L3.57222 21.4115V21.2794L3.43991 21.1472V21.015L3.30761 20.8828V20.7507L3.1753 20.6185V20.3542L3.043 20.222V19.9577L2.91069 19.8255V19.6933L2.77839 19.5611V19.429L2.64609 19.2968V19.0325L2.51378 18.9003V18.7681L2.24917 18.5038V18.3716L1.98456 18.1073V17.9751L1.71996 17.7108V17.5786L1.58765 17.4464V17.3143L1.05843 16.7856H0.92613L0.661521 16.5212H0.264609V16.9178L0 17.1821L0.132304 17.3143V17.4464L0.264609 17.5786V17.8429L0.132304 17.9751V19.2968L0.264609 19.429V19.9577L0.396913 20.0898V20.4863L0.529217 20.6185V20.8828L0.661521 21.015V21.1472L0.793826 21.2794V21.4115L1.05843 21.6759V21.808L1.71996 22.4689V22.601L2.11687 22.9976V23.1297L2.51378 23.5262H2.64609L3.043 23.9227V24.0549L3.1753 24.1871V24.3193L3.30761 24.4514V24.5836L3.43991 24.7158V24.8479L3.57222 24.9801V25.1123L3.70452 25.2444V25.6409L3.83682 25.7731V26.1696L3.70452 26.3018V26.8305L3.57222 26.9626L3.43991 26.8305V26.434L3.1753 26.1696V26.0375L2.64609 25.5088V25.3766L2.24917 24.9801V24.8479L1.85226 24.4514V24.3193L1.05843 23.5262H0.92613L0.793826 23.3941H0.264609V23.5262L0.132304 23.6584V24.4514L0.264609 24.5836V25.2444L0.396913 25.3766V25.6409L0.529217 25.7731V25.9053L0.661521 26.0375V26.1696L0.92613 26.434V26.5661L1.19074 26.8305V26.9626L2.38148 28.1522H2.51378L3.043 28.6808H3.1753L3.43991 28.9452H3.57222L3.83682 29.2095H3.96913L4.23374 29.4739V29.606L4.63065 30.0025V30.1347L4.76295 30.2669V30.3991L4.89526 30.5312V30.9277L5.02756 31.0599V31.3242L5.15987 31.4564V31.7207L5.29217 31.8529V32.2494L5.42448 32.3816V32.6459L5.55678 32.7781V32.9103L5.42448 33.0424L5.15987 32.7781V32.6459L5.02756 32.5138V32.3816L4.76295 32.1173V31.9851L4.49835 31.7207V31.5886L4.36604 31.4564V31.3242L3.83682 30.7956V30.6634L3.30761 30.1347V30.0025H3.1753L2.51378 29.3417H2.38148L2.24917 29.2095H1.98456L1.85226 29.0774H1.32304L1.19074 29.2095V29.4739L1.05843 29.606V30.0025L1.19074 30.1347V30.5312L1.32304 30.6634V30.9277L1.45535 31.0599V31.1921L1.58765 31.3242V31.5886L1.71996 31.7207V31.9851L1.85226 32.1173V32.2494L1.98456 32.3816V32.5138L2.11687 32.6459V32.7781L2.38148 33.0424V33.1746L4.89526 35.6858H5.02756L5.15987 35.818H5.29217L5.42448 35.9502H5.55678L5.68908 36.0823H5.95369L6.086 36.2145H6.35061L7.14443 37.0075V37.1397L7.27674 37.2719V37.404L7.40904 37.5362V37.6684L7.54134 37.8005V37.9327L7.67365 38.0649V38.1971L7.54134 38.3292L7.14443 37.9327H7.01213L6.74752 37.6684H6.61521L6.35061 37.404H6.2183L6.086 37.2719H5.95369L5.82139 37.1397H5.68908L5.55678 37.0075H5.42448L5.29217 36.8754H5.02756L4.89526 36.7432H4.23374L4.10143 36.8754H3.70452V37.6684L3.83682 37.8005V38.0649L4.10143 38.3292V38.4614L5.95369 40.3118H6.086L6.35061 40.5761H6.48291L6.61521 40.7083H6.74752L6.87982 40.8404H7.01213L7.14443 40.9726H7.27674L7.67365 41.3691H7.80595L7.93826 41.5013H8.86439L8.99669 41.6335H9.129L9.2613 41.7656H9.39361L9.65821 42.03H9.79052L10.3197 42.5587L10.1874 42.6908H9.79052L9.65821 42.5587H8.46747L8.33517 42.6908H8.07056L7.93826 42.823H7.80595L6.87982 43.7482V43.8803L6.74752 44.0125V44.2769L6.61521 44.409V44.5412L6.48291 44.6734V45.202L6.61521 45.3342V45.4664H6.74752L7.01213 45.202H7.27674L7.40904 45.0699H7.54134L7.67365 44.9377H7.80595L7.93826 44.8055H9.39361L9.52591 44.9377H9.79052L9.92282 45.0699H10.0551L10.1874 45.202H10.452L10.5843 45.3342H10.7166L10.9813 45.5986H11.1136L11.2459 45.7307H11.3782L11.6428 45.9951H11.7751L11.9074 46.1272H12.0397L12.172 46.2594H12.3043L12.4366 46.3916H12.5689L12.7012 46.5237H12.8335L12.9658 46.6559H13.0981L13.2304 46.7881H13.3627L13.495 46.9202H13.7596L13.892 47.0524H14.0243L14.2889 47.3168H14.4212L14.5535 47.4489H14.6858L14.8181 47.5811H14.9504L15.0827 47.7133L14.9504 47.8454H12.8335L12.7012 47.9776H12.3043L12.172 48.1098H12.0397L11.9074 48.2419H11.7751L11.5105 48.5063H11.3782L11.2459 48.6385V48.7706L10.9813 49.035V49.1671L10.7166 49.4315V49.6958L10.9813 49.9601V50.0923L11.1136 50.2245V50.3567L11.7751 51.0175H11.9074L12.0397 51.1497H12.172L12.3043 51.2818H12.4366L12.5689 51.414H12.7012L12.8335 51.2818V51.0175L12.9658 50.8853V50.7532L13.0981 50.621V50.4888L13.3627 50.2245H13.495L13.6273 50.0923H13.7596L13.892 49.9601H14.0243L14.1566 49.828H14.6858L14.8181 49.9601H15.0827L15.3473 50.2245H15.4796L15.6119 50.3567V50.4888L15.7442 50.621V50.8853L15.8765 51.0175H16.4057L16.538 50.8853H16.8026L16.9349 50.7532H17.0673L17.1996 50.621H17.3319L17.9934 49.9601H18.1257L18.3903 49.6958H18.6549L18.7872 49.5636H20.7718L20.9041 49.6958L20.7718 49.828H20.6395L20.5072 49.9601H20.2426L20.1103 50.0923H19.7133L19.581 50.2245H19.4487L19.3164 50.3567H19.1841L18.9195 50.621H18.7872L18.6549 50.7532H18.5226L17.9934 51.2818V51.414L17.8611 51.5462V51.6784L17.7288 51.8105V51.9427L17.5965 52.0749V52.207L17.3319 52.4714V52.7357L17.1996 52.8679H17.7288L17.8611 53.0001H19.581L19.7133 52.8679H20.1103L20.2426 52.7357H20.5072L20.6395 52.6035H20.9041L21.0364 52.4714H21.301L21.4333 52.3392H22.8886L23.0209 52.4714H23.1533L23.2856 52.6035H23.4179L23.5502 52.7357H23.8148L23.9471 52.8679H24.6086L24.7409 53.0001H26.8578L26.9901 52.8679V52.7357L26.8578 52.6035V52.3392L26.7255 52.207V52.0749L26.5932 51.9427V51.8105L26.4609 51.6784V51.5462L25.5347 50.621H25.4024L25.2701 50.4888H25.1378L25.0055 50.3567H24.8732L24.7409 50.2245H24.4763L24.344 50.0923H24.0794L23.9471 49.9601H23.8148L23.6825 49.828V49.6958L23.8148 49.5636H24.2117L24.344 49.6958H25.7993L25.9316 49.828H26.0639L26.3286 50.0923H26.4609L26.9901 50.621H27.1224L27.2547 50.7532H27.387L27.5193 50.8853H27.7839L27.9162 51.0175H28.5777L28.71 50.8853V50.7532L28.8423 50.621V50.4888L28.9746 50.3567V50.2245L29.1069 50.0923H29.2392L29.3716 49.9601H30.1654L30.2977 49.828H30.5623L30.6946 49.9601H30.8269L31.0915 50.2245H31.2238L31.3561 50.3567V50.4888L31.4884 50.621V50.7532L31.6207 50.8853V51.2818H32.0176L32.1499 51.1497H32.2822L32.4146 51.0175H32.5469L32.6792 50.8853H32.8115L33.3407 50.3567V50.2245L33.6053 49.9601V49.828L33.7376 49.6958V49.2993L33.473 49.035V48.9028L33.3407 48.7706V48.6385L33.0761 48.3741H32.9438L32.8115 48.2419H32.6792L32.5469 48.1098H32.2822L32.1499 47.9776H31.753L31.6207 47.8454H29.6362L29.5039 47.7133L29.7685 47.4489H29.9008L30.1654 47.1846H30.2977L30.5623 46.9202H30.8269L30.9592 46.7881H31.0915L31.2238 46.6559H31.4884L31.6207 46.5237H31.753L32.0176 46.2594H32.1499L32.2822 46.1272H32.4146L32.5469 45.9951H32.6792L32.9438 45.7307H33.0761L33.2084 45.5986H33.3407L33.473 45.4664H33.6053L33.8699 45.202H34.0022L34.1345 45.0699H34.3991L34.5314 44.9377H34.796L34.9283 44.8055H36.3837L36.516 44.9377H36.9129L37.0452 45.0699H37.1775L37.4421 45.3342H37.5744L37.839 45.5986H37.9713V44.6734L37.839 44.5412V44.1447L37.7067 44.0125V43.8803L37.4421 43.616V43.4838L36.7806 42.823H36.6483L36.516 42.6908H36.2514L36.1191 42.5587H34.5314L34.3991 42.6908L34.2668 42.5587V42.4265L34.3991 42.2943H34.5314L34.796 42.03H34.9283L35.0606 41.8978H35.4576L35.3252 41.7656V41.6335L35.4576 41.5013H36.3837L36.516 41.3691H36.6483L36.9129 41.1048H37.0452L37.1775 40.9726H37.3098L37.4421 40.8404H37.5744L37.7067 40.7083H37.839L37.9713 40.5761H38.1036L38.3682 40.3118H38.5006L39.1621 39.6509H39.2944L39.8236 39.1222V38.9901L40.2205 38.5936V38.4614L40.6174 38.0649V37.8005L40.7497 37.6684V37.404L40.882 37.2719V37.1397L40.7497 37.0075V36.8754H39.2944L39.1621 37.0075H39.0298L38.8975 37.1397H38.7652L38.6329 37.2719H38.5006L38.3682 37.404H38.2359L38.1036 37.5362H37.9713L37.5744 37.9327H37.4421L37.1775 38.1971H37.0452L36.9129 38.0649L37.0452 37.9327V37.8005L37.1775 37.6684V37.5362L37.4421 37.2719V37.1397L37.5744 37.0075V36.8754L38.1036 36.3467H38.2359L38.3682 36.2145H38.5006L38.6329 36.0823H38.8975L39.0298 35.9502H39.1621L39.2944 35.818H39.4267L39.6913 35.5537H39.8236L42.0728 33.3068V33.1746L42.4697 32.7781V32.6459L42.602 32.5138V32.3816L42.7343 32.2494V31.9851L42.8666 31.8529V31.7207L42.9989 31.5886V31.3242L43.1312 31.1921V30.9277L43.2635 30.7956V30.2669L43.5281 30.0025V29.606L43.3958 29.4739V29.2095L43.2635 29.0774H42.7343L42.602 29.2095H42.3374L42.2051 29.3417H42.0728L40.3528 31.0599V31.1921L40.2205 31.3242V31.4564L39.9559 31.7207V31.8529L39.6913 32.1173V32.2494L39.559 32.3816V32.5138L39.2944 32.7781L39.1621 32.6459V32.5138L39.2944 32.3816V32.1173L39.4267 31.9851V31.7207L39.559 31.5886V31.3242L39.6913 31.1921V30.6634L39.8236 30.5312V30.3991L39.9559 30.2669V30.0025L40.2205 29.7382V29.606L40.7497 29.0774H40.882L41.0143 28.9452H41.1466L41.2789 28.813H41.4112L42.2051 28.02H42.3374L43.3958 26.9626V26.8305L43.6604 26.5661V26.434L43.925 26.1696V26.0375L44.0573 25.9053V25.7731L44.1896 25.6409V25.3766L44.3219 25.2444V24.8479L44.4542 24.7158V23.7906L44.3219 23.6584V23.3941H43.7927L43.6604 23.5262H43.5281L42.9989 24.0549V24.1871L42.602 24.5836V24.7158L41.9405 25.3766V25.5088L41.4112 26.0375V26.1696L41.2789 26.3018V26.434L41.1466 26.5661V26.6983L41.0143 26.8305L40.882 26.6983V26.3018L40.7497 26.1696V25.7731L40.882 25.6409V25.2444L41.0143 25.1123V24.9801L41.1466 24.8479V24.7158L41.2789 24.5836V24.4514L41.4112 24.3193V24.1871L41.5435 24.0549V23.9227L41.9405 23.5262H42.0728L42.2051 23.3941H42.3374V23.2619L42.4697 23.1297V22.9976L43.2635 22.2045V22.0724L43.6604 21.6759V21.5437L43.7927 21.4115V21.2794L43.925 21.1472V21.015L44.0573 20.8828V20.6185L44.1896 20.4863V20.0898L44.3219 19.9577V19.429L44.4542 19.2968V17.9751L44.3219 17.8429V17.5786L44.4542 17.4464V17.3143L44.5865 17.1821L44.3219 16.9178V16.7856L44.1896 16.6534L44.3219 16.5212H43.925L43.7927 16.6534H43.6604L42.8666 17.4464V17.5786L42.7343 17.7108V17.8429L42.602 17.9751V18.1073L42.3374 18.3716V18.5038L42.0728 18.7681V18.9003L41.9405 19.0325V19.1646L41.8082 19.2968V19.5611L41.6759 19.6933V19.9577L41.5435 20.0898V20.222L41.4112 20.3542V20.4863L41.2789 20.6185V20.8828L41.1466 21.015V21.1472L41.0143 21.2794V21.5437L40.882 21.6759L40.7497 21.5437V19.429L40.882 19.2968V18.5038L41.0143 18.3716V17.0499L41.1466 16.9178V15.7282L41.0143 15.5961V14.6709L40.882 14.5387V13.8779L40.7497 13.7457V13.4813L40.6174 13.3492V13.0848L40.4851 12.9527V12.8205L40.2205 12.5562V12.424L39.559 11.7631L39.0298 12.2918V12.5562L38.8975 12.6883V12.8205L39.0298 12.9527V13.4813L39.1621 13.6135V13.8779L39.2944 14.01V14.2744L39.4267 14.4065V14.6709L39.559 14.803V15.0674L39.6913 15.1996V15.4639L39.8236 15.5961V15.7282L39.9559 15.8604V16.1247L40.0882 16.2569V16.6534L40.2205 16.7856V16.9178L40.0882 17.0499L39.8236 16.7856V16.5212L39.6913 16.3891V16.2569L39.559 16.1247V15.8604L39.4267 15.7282V15.4639L39.2944 15.3317V15.1996L39.1621 15.0674V14.9352L39.0298 14.803V14.6709L38.6329 14.2744V14.1422L38.3682 13.8779V13.7457L37.839 13.217V13.0848L37.0452 12.2918H36.9129L36.6483 12.0275H36.516L36.3837 11.8953H36.2514L36.1191 11.7631H35.8545L35.7222 11.631H35.3252L35.1929 11.4988H34.2668L34.1345 11.3666H33.8699L33.6053 11.1023H33.473Z" fill="black"/>
<path d="M111.929 8.72314L111.797 8.85531V8.98748L111.929 9.11965H112.591L112.723 9.25182H112.856L113.12 9.51616V9.91267L113.252 10.0448V18.9002L113.12 19.0324V19.9576L112.988 20.0897V20.2219L112.856 20.3541H112.723L112.591 20.4862H111.929V20.7506L112.062 20.8827H112.194L112.326 20.7506L112.459 20.8827L112.591 20.7506H115.899L116.031 20.8827H119.206L119.338 20.7506V20.6184L119.471 20.4862V19.8254L119.603 19.6932V18.5037L119.471 18.3715L119.338 18.5037V18.768L119.206 18.9002V19.1645L119.074 19.2967V19.4289L118.809 19.6932H118.677L118.545 19.8254H117.883L117.751 19.9576H117.222L117.089 19.8254H116.031L115.899 19.6932H115.634L115.369 19.4289V18.5037L115.237 18.3715V14.9351L115.369 14.8029H116.56L116.692 14.9351H117.751L117.883 15.0673H118.015L118.412 15.4638V15.7281L118.545 15.8603V16.1246H118.809V15.1995L118.942 15.0673V14.0099L119.074 13.8778V13.4812H118.809L118.545 13.7456H118.28L118.148 13.8778H115.369L115.237 13.7456V9.7805L115.369 9.64833H116.957L117.089 9.7805H117.883L118.015 9.91267H118.28L118.677 10.3092V10.7057L118.809 10.8379V10.97H119.074V10.177L119.206 10.0448V9.25182L119.338 9.11965V8.72314H111.929Z" fill="black"/>
<path d="M99.0959 8.72314V8.98748L99.2283 9.11965H99.7575L99.8898 9.25182H100.022L100.287 9.51616V10.0448L100.419 10.177V16.1246L100.287 16.2568V19.9576L99.7575 20.4862H99.2283L99.0959 20.6184V20.7506H99.2283L99.3606 20.8827H99.6252L99.7575 20.7506H102.404L102.536 20.8827H105.843L105.976 20.7506H106.637L106.77 20.6184H107.167L107.299 20.4862H107.696L107.828 20.3541H107.96L108.093 20.2219H108.225L108.357 20.0897H108.49L108.622 19.9576H108.754L108.886 19.8254H109.019L109.416 19.4289H109.548L110.342 18.6359V18.5037L110.606 18.2394V18.1072L110.739 17.975V17.8428L110.871 17.7107V17.5785L111.003 17.4463V17.3142L111.136 17.182V16.9177L111.268 16.7855V16.5211L111.4 16.389V15.8603L111.533 15.7281V13.6134L111.4 13.4812V12.9526L111.268 12.8204V12.5561L111.136 12.4239V12.2917L111.003 12.1596V12.0274L110.871 11.8952V11.763L110.739 11.6309V11.4987L110.474 11.2344V11.1022L109.283 9.91267H109.151L108.886 9.64833H108.754L108.622 9.51616H108.49L108.357 9.38399H108.225L108.093 9.25182H107.828L107.696 9.11965H107.431L107.299 8.98748H106.902L106.77 8.85531H105.711L105.579 8.72314H99.0959Z" fill="black"/>
<path d="M85.6008 8.72314V8.98748L85.7331 9.11965H86.2624L86.3947 9.25182H86.527L86.7916 9.51616V9.91267L86.9239 10.0448V18.9002L86.7916 19.0324V19.9576L86.6593 20.0897V20.2219L86.527 20.3541H86.3947L86.2624 20.4862H85.7331L85.6008 20.6184L85.8654 20.8827L85.9977 20.7506H89.7023L89.8346 20.8827H92.7453L93.0099 20.6184V20.2219L93.1422 20.0897V19.4289L93.2745 19.2967V18.5037L93.1422 18.3715H93.0099V18.5037L92.8776 18.6359V18.9002L92.7453 19.0324V19.1645L92.613 19.2967V19.4289L92.3483 19.6932H92.216L92.0837 19.8254H89.57L89.4377 19.6932H89.3054L89.0407 19.4289V19.2967L88.9084 19.1645V14.9351L89.0407 14.8029L89.173 14.9351H91.1576L91.2899 15.0673H91.6868L92.0837 15.4638V16.1246H92.3483L92.4807 15.9925V14.5386L92.613 14.4064V13.4812H92.3483V13.6134L92.216 13.7456H92.0837L91.9514 13.8778H90.4961L90.3638 14.0099H89.0407L88.9084 13.8778V9.7805L89.0407 9.64833H90.6284L90.7607 9.7805H91.6868L91.8191 9.91267H91.9514L92.216 10.177V10.3092L92.3483 10.4413V10.97H92.613V10.7057L92.7453 10.5735V9.64833L92.8776 9.51616V8.72314H85.6008Z" fill="black"/>
<path d="M76.6042 8.72314L76.4719 8.85531V8.98748L76.6042 9.11965H77.2657L77.3981 9.25182H77.5304L77.6627 9.38399V9.51616L77.795 9.64833V10.5735L77.9273 10.7057V16.5211L77.795 16.6533V19.8254L77.6627 19.9576V20.0897L77.2657 20.4862H76.6042V20.7506L76.7365 20.8827H77.2657L77.3981 20.7506H80.3087L80.4411 20.8827H84.0133L84.1456 20.7506H84.2779V20.6184L84.4102 20.4862V20.2219L84.5425 20.0897V19.6932L84.6748 19.561V18.9002L84.8071 18.768V18.5037L84.6748 18.3715H84.5425L84.4102 18.5037V18.768L84.2779 18.9002V19.0324L84.0133 19.2967V19.4289L83.881 19.561H83.7487L83.6164 19.6932H83.4841L83.3517 19.8254H82.8225L82.6902 19.9576H81.3672L81.2349 19.8254H80.7057L80.5734 19.6932H80.4411L80.1764 19.4289V19.2967L80.0441 19.1645V18.2394L79.9118 18.1072V11.3665L80.0441 11.2344V9.51616L80.3087 9.25182H80.4411L80.5734 9.11965H81.1026V8.72314H76.6042Z" fill="black"/>
<path d="M67.3428 8.72314V8.98748H67.4751L67.6074 9.11965H68.0043L68.1366 9.25182H68.2689L68.5335 9.51616V9.91267L68.6658 10.0448V18.2394L68.5335 18.3715V19.9576L68.4012 20.0897V20.2219L68.2689 20.3541H68.1366L68.0043 20.4862H67.3428V20.7506H67.4751L67.6074 20.8827H68.0043L68.1366 20.7506H70.915L71.0473 20.8827H74.7518L74.8841 20.7506H75.0164V20.6184L75.1487 20.4862V20.0897L75.281 19.9576V19.4289L75.4133 19.2967V18.9002L75.5456 18.768V18.3715L75.4133 18.2394H75.281L75.1487 18.3715V18.6359L75.0164 18.768V18.9002L74.8841 19.0324V19.1645L74.3549 19.6932H74.2226L74.0903 19.8254H73.5611L73.4288 19.9576H72.1057L71.9734 19.8254H71.4442L71.3119 19.6932H71.1796L70.915 19.4289V19.2967L70.7827 19.1645V18.768L70.6504 18.6359V10.8379L70.7827 10.7057V9.51616L71.0473 9.25182H71.1796L71.3119 9.11965H71.8411V8.85531L71.7088 8.72314H67.3428Z" fill="black"/>
<path d="M61.2568 8.72314V8.98748L61.3891 9.11965H61.9184L62.3153 9.51616V9.64833L62.4476 9.7805V19.0324L62.3153 19.1645V20.0897L62.0507 20.3541H61.9184L61.7861 20.4862H61.2568V20.7506H61.3891L61.5214 20.8827H61.6537L61.7861 20.7506H64.9614L65.0937 20.8827H65.8875L66.0198 20.7506V20.4862H65.3583L65.226 20.3541H64.9614L64.6967 20.0897V19.9576L64.5644 19.8254V18.768L64.4321 18.6359V11.2344L64.5644 11.1022V9.64833L64.6967 9.51616V9.38399L64.8291 9.25182H64.9614L65.0937 9.11965H65.6229V8.72314H61.2568Z" fill="black"/>
<path d="M48.4233 8.72314V8.98748L48.5556 9.11965H48.9526L49.0849 9.25182H49.2172L49.4818 9.51616V9.64833L49.6141 9.7805V9.91267L49.7464 10.0448V10.177L49.8787 10.3092V10.4413L50.011 10.5735V10.8379L50.1433 10.97V11.1022L50.2756 11.2344V11.4987L50.4079 11.6309V11.763L50.5402 11.8952V12.1596L50.6725 12.2917V12.4239L50.8048 12.5561V12.6882L50.9371 12.8204V13.0847L51.0694 13.2169V13.3491L51.2017 13.4812V13.7456L51.334 13.8778V14.0099L51.4663 14.1421V14.4064L51.5986 14.5386V14.6708L51.7309 14.8029V15.0673L51.8633 15.1995V15.3316L51.9956 15.4638V15.7281L52.1279 15.8603V15.9925L52.2602 16.1246V16.2568L52.3925 16.389V16.6533L52.5248 16.7855V16.9177L52.6571 17.0498V17.3142L52.7894 17.4463V17.5785L52.9217 17.7107V17.975L53.054 18.1072V18.2394L53.1863 18.3715V18.6359L53.3186 18.768V18.9002L53.4509 19.0324V19.1645L53.5832 19.2967V19.561L53.7155 19.6932V19.8254L53.8478 19.9576V20.2219L53.9801 20.3541V20.4862L54.1124 20.6184V20.7506L54.377 21.0149H54.5093L54.6416 20.8827H54.7739V20.7506L54.9063 20.6184V20.4862L55.0386 20.3541V20.2219L55.1709 20.0897V19.9576L55.3032 19.8254V19.6932L55.4355 19.561V19.4289L55.5678 19.2967V19.0324L55.7001 18.9002V18.768L55.8324 18.6359V18.5037L55.9647 18.3715V18.2394L56.097 18.1072V17.8428L56.2293 17.7107V17.5785L56.3616 17.4463V17.3142L56.4939 17.182V17.0498L56.6262 16.9177V16.6533L56.7585 16.5211V16.389L56.8908 16.2568V16.1246L57.0231 15.9925V15.7281L57.1554 15.596V15.4638L57.2877 15.3316V15.1995L57.42 15.0673V14.8029L57.5523 14.6708V14.5386L57.6846 14.4064V14.2743L57.8169 14.1421V14.0099L57.9492 13.8778V13.6134L58.0816 13.4812V13.3491L58.2139 13.2169V12.9526L58.3462 12.8204V12.6882L58.4785 12.5561V12.4239L58.6108 12.2917V12.0274L58.7431 11.8952V11.763L58.8754 11.6309V11.3665L59.0077 11.2344V11.1022L59.14 10.97V10.8379L59.2723 10.7057V10.4413L59.4046 10.3092V10.177L59.5369 10.0448V9.91267L59.9338 9.51616V9.38399L60.0661 9.25182H60.1984L60.3307 9.11965H60.7276L60.8599 8.98748H60.9922V8.72314H57.42L57.2877 8.85531L57.5523 9.11965H57.8169L58.0816 9.38399V10.0448L57.9492 10.177V10.4413L57.8169 10.5735V10.8379L57.6846 10.97V11.1022L57.5523 11.2344V11.4987L57.42 11.6309V11.8952L57.2877 12.0274V12.2917L57.1554 12.4239V12.5561L57.0231 12.6882V12.9526L56.8908 13.0847V13.2169L56.7585 13.3491V13.6134L56.6262 13.7456V14.0099L56.4939 14.1421V14.2743L56.3616 14.4064V14.6708L56.2293 14.8029V15.0673L56.097 15.1995V15.3316L55.9647 15.4638V15.7281L55.8324 15.8603V15.9925L55.7001 16.1246V16.389L55.5678 16.5211V16.6533L55.4355 16.7855V17.0498L55.3032 17.182V17.4463L55.0386 17.7107L54.9063 17.5785V17.3142L54.7739 17.182V17.0498L54.6416 16.9177V16.6533L54.5093 16.5211V16.389L54.377 16.2568V15.9925L54.2447 15.8603V15.596L54.1124 15.4638V15.1995L53.9801 15.0673V14.9351L53.8478 14.8029V14.5386L53.7155 14.4064V14.2743L53.5832 14.1421V13.8778L53.4509 13.7456V13.4812L53.3186 13.3491V13.2169L53.1863 13.0847V12.8204L53.054 12.6882V12.4239L52.9217 12.2917V12.1596L52.7894 12.0274V11.763L52.6571 11.6309V11.3665L52.5248 11.2344V11.1022L52.3925 10.97V10.7057L52.2602 10.5735V10.4413L52.1279 10.3092V10.0448L51.9956 9.91267V9.38399L52.2602 9.11965H52.6571L52.7894 8.98748V8.85531L52.6571 8.72314H48.4233Z" fill="black"/>
<path d="M22.3595 0L22.2272 0.13217H21.4333L21.301 0.264339V0.396509L21.4333 0.528678V0.793017L21.5656 0.925187V1.05736L21.6979 1.18953V1.3217L21.5656 1.45387L21.301 1.18953H20.5072L20.2426 1.45387V1.7182L20.5072 1.98254L20.3749 2.11471L20.5072 2.24688H20.6395L20.7718 2.11471H20.9041L21.301 2.51122L21.1687 2.64339H21.0364L20.9041 2.51122H19.978L19.8457 2.64339H19.7134L19.3165 3.0399V3.30424L19.1842 3.43641V3.96509L19.3165 4.09726V4.22943L19.4488 4.3616V4.49377L19.5811 4.62594H19.978V4.49377L20.3749 4.09726H20.9041L21.1687 4.3616V4.49377L21.301 4.62594V4.89027L21.4333 5.02244V5.68329L21.301 5.81546V6.0798L21.1687 6.21197V6.34414L20.6395 6.87282H20.5072L20.3749 7.00499H19.978L19.8457 6.87282H19.5811L19.3165 6.60848H19.1842L19.0519 6.47631L19.1842 6.34414H19.3165V6.21197L19.1842 6.0798V5.94763L19.0519 5.81546V5.68329L18.9195 5.55112V5.41895L18.7872 5.28678V5.02244L18.6549 4.89027V4.7581L18.5226 4.62594V4.49377H18.3903L18.258 4.3616H18.1257V5.15461L17.9934 5.28678V6.47631L17.8611 6.60848V6.74065L17.4642 7.13716V7.26933H17.5965L17.7288 7.4015L17.5965 7.53367H16.8027L16.6704 7.4015H16.5381L16.0089 6.87282V6.60848L15.8765 6.47631V6.34414L15.7442 6.21197V5.41895L16.0089 5.15461H16.6704L16.8027 5.28678H16.935L17.0673 5.41895H17.3319V5.15461L17.4642 5.02244V4.3616L17.3319 4.22943V4.09726L17.1996 3.96509V3.83292L16.935 3.56858V3.43641L16.6704 3.17207H16.5381L16.4058 3.0399H15.8765L15.4796 3.43641H15.3473L15.215 3.30424V2.77556L15.0827 2.64339V2.51122L14.8181 2.24688H13.6274L13.4951 2.37905H13.3628L13.2305 2.51122V2.77556L13.0982 2.90773V3.43641L13.2305 3.56858V3.83292L13.3628 3.96509V4.09726L13.2305 4.22943H13.0982L12.9659 4.09726H12.4366L12.0397 4.49377V4.62594L12.3043 4.89027H12.5689L12.7012 5.02244H12.8336L13.0982 5.28678H13.2305L14.1566 6.21197V6.34414L14.2889 6.47631V6.60848L14.4212 6.74065V7.00499L14.5535 7.13716V7.66584L14.4212 7.798V7.93017L14.5535 8.06234L14.4212 8.19451V8.32668L14.2889 8.45885H14.1566L13.892 8.72319H13.0982L12.9659 8.59102H12.8336L12.4366 8.19451V7.66584L12.5689 7.53367V7.4015L12.7012 7.26933V7.13716L12.8336 7.00499V6.47631L12.7012 6.34414V6.21197H12.4366L12.3043 6.0798H12.172L12.0397 6.21197H11.9074L11.7751 6.34414V6.47631L11.6428 6.60848V6.74065L11.5105 6.87282L11.3782 6.74065V6.47631L11.1136 6.21197V6.0798L10.849 5.81546H10.7167L10.4521 5.55112H10.3198L10.1875 5.41895H10.0552L9.92286 5.28678H9.26134L9.12903 5.41895H8.99673L8.46751 5.94763V6.0798L8.33521 6.21197V6.74065H8.59981L8.73212 6.87282H8.86442L8.99673 7.00499H9.12903L9.26134 7.13716H9.39364L9.52594 7.26933H9.65825L9.92286 7.53367H10.0552L10.1875 7.66584V7.798L10.3198 7.93017V8.06234L10.7167 8.45885H10.849L10.9813 8.59102H11.1136L11.5105 8.98753L11.3782 9.1197H11.2459L11.1136 9.25187V9.38404H11.3782L11.5105 9.51621H11.6428L11.9074 9.78055H12.0397L12.172 9.91272V10.0449L12.4366 10.3092V10.4414L12.5689 10.5736V10.8379L12.7012 10.9701V11.1022L12.8336 11.2344V11.4988L12.9659 11.6309V11.7631L13.0982 11.8953V12.0274L13.2305 12.1596V12.2918L13.3628 12.4239V12.5561L13.4951 12.6883V12.9526L13.6274 13.0848V13.217L13.7597 13.3491V13.6135L13.892 13.7456L14.0243 13.6135H14.1566L14.2889 13.4813H14.4212L14.5535 13.3491H14.6858L14.8181 13.217H15.0827L15.215 13.0848H15.3473L15.4796 12.9526H15.6119L15.7442 12.8204H16.1412L16.2735 12.6883H16.6704L16.8027 12.8204L16.6704 12.9526H16.4058L16.2735 13.0848H16.0089L15.8765 13.217H15.7442L15.6119 13.3491H15.4796L15.3473 13.4813H15.215L15.0827 13.6135H14.9504L14.8181 13.7456H14.6858L14.4212 14.01H14.2889L14.1566 14.1421H14.0243L13.7597 14.4065H13.6274L13.2305 14.803H13.0982L12.9659 14.9352H12.8336L12.7012 15.0673H12.4366L12.3043 15.1995H11.2459L10.9813 14.9352H10.7167L10.5844 14.803H10.4521L10.3198 14.9352V15.1995L10.7167 15.596H10.9813L11.1136 15.7282H12.4366L12.5689 15.596H12.9659L13.0982 15.4638H13.2305L13.3628 15.3317H13.6274L13.7597 15.1995H13.892L14.0243 15.0673H14.1566L14.2889 14.9352H14.4212L14.5535 14.803H14.6858L14.8181 14.6708H15.0827L15.215 14.5387H15.3473L15.4796 14.4065H15.7442L15.8765 14.2743H16.0089L16.1412 14.1421H16.5381L16.6704 14.01H16.935L17.0673 13.8778H17.7288L17.8611 13.7456H18.5226L18.6549 13.6135H19.1842L19.3165 13.4813H20.1103L20.2426 13.3491H21.301L21.4333 13.217H23.2856L23.4179 13.3491H24.8732L25.0055 13.4813H25.6671L25.7994 13.6135H26.4609L26.5932 13.7456H27.1224L27.2547 13.8778H27.7839L27.9162 14.01H28.1808L28.3132 14.1421H28.5778L28.7101 14.2743H28.9747L29.107 14.4065H29.2393L29.3716 14.5387H29.6362L29.7685 14.6708H29.9008L30.0331 14.803H30.1654L30.2977 14.9352H30.43L30.5623 15.0673H30.6946L30.8269 15.1995H30.9592L31.0915 15.3317H31.3562L31.4885 15.4638H31.7531L31.8854 15.596H32.2823L32.4146 15.7282H33.473L33.6053 15.596H33.7376L34.2668 15.0673V14.803L34.3992 14.6708L34.2668 14.5387V14.4065H34.1345L34.0022 14.5387V14.6708L33.7376 14.9352H33.6053L33.473 15.0673H33.3407L33.2084 15.1995H32.4146L32.2823 15.0673H32.0177L31.8854 14.9352H31.7531L31.6208 14.803H31.4885L31.2238 14.5387H31.0915L30.5623 14.01H30.43L30.2977 13.8778H30.1654L30.0331 13.7456H29.9008L29.7685 13.6135H29.6362L29.5039 13.4813H29.3716L29.2393 13.3491H28.9747L28.8424 13.217H28.5778L28.4455 13.0848H28.1808L28.0485 12.9526H27.7839L27.6516 12.8204H27.2547L27.1224 12.6883H26.7255L26.5932 12.5561H26.1963L26.064 12.4239H25.4025L25.2702 12.2918H24.6086L24.4763 12.1596H23.2856L23.1533 12.0274H21.9625L21.8302 12.1596H19.978L19.8457 12.2918H19.0519L18.9195 12.4239H18.3903L18.258 12.5561H17.8611L17.7288 12.6883H17.3319L17.1996 12.8204H16.8027L16.6704 12.6883L16.8027 12.5561H17.0673L17.1996 12.4239H17.4642L17.5965 12.2918H18.1257L18.258 12.1596H18.6549L18.7872 12.0274H19.3165L19.4488 11.8953H20.1103L20.2426 11.7631H21.8302L21.9625 11.6309H22.8887L23.021 11.7631H24.344L24.4763 11.8953H25.1379L25.2702 12.0274H25.9317L26.064 12.1596H26.4609L26.5932 12.2918H27.1224L27.2547 12.4239H27.5193L27.6516 12.5561H27.9162L28.0485 12.6883H28.3132L28.4455 12.8204H28.7101L28.8424 12.9526H29.107L29.2393 13.0848H29.3716L29.5039 13.217H29.6362L29.7685 13.3491H29.9008L30.0331 13.4813H30.1654L30.2977 13.6135H30.43L30.5623 13.7456V13.6135L30.6946 13.4813V13.3491L30.8269 13.217V13.0848L30.9592 12.9526V12.6883L31.0915 12.5561V12.4239L31.2238 12.2918V12.0274L31.3562 11.8953V11.6309L31.6208 11.3666V11.2344L31.7531 11.1022V10.8379H31.6208L31.4885 10.7057H31.3562L31.0915 10.4414H30.9592L30.8269 10.3092H30.6946L30.5623 10.1771H30.43L30.2977 10.0449H30.1654L30.0331 9.91272H29.9008L29.7685 9.78055H29.5039L29.3716 9.64838H29.107L28.9747 9.51621H28.8424L28.7101 9.38404H28.4455L28.3132 9.25187H27.9162L27.7839 9.1197H27.387L27.2547 8.98753H26.8578L26.7255 8.85536H26.1963L26.064 8.72319H25.4025L25.2702 8.59102H24.4763L24.344 8.45885H23.2856L23.1533 8.32668L23.2856 8.19451H23.4179L23.5502 8.06234H24.0794L24.2117 8.19451H25.1379L25.2702 8.32668H25.9317L26.064 8.45885H26.5932L26.7255 8.59102H27.1224L27.2547 8.72319H27.6516L27.7839 8.85536H28.1808L28.3132 8.98753H28.5778L28.7101 9.1197H28.9747L29.107 9.25187H29.3716L29.5039 9.38404H29.7685L29.9008 9.51621H30.0331L30.1654 9.64838H30.2977L30.43 9.78055H30.5623L30.6946 9.91272H30.8269L30.9592 10.0449H31.0915L31.2238 10.1771H31.3562L31.6208 10.4414H31.7531L31.8854 10.5736V10.4414L32.0177 10.3092V10.1771L32.8115 9.38404H33.0761L33.2084 9.25187V9.1197L32.9438 8.85536L33.0761 8.72319V8.59102L33.2084 8.45885H33.3407L33.473 8.32668H33.6053L34.5315 7.4015H34.6638L35.0607 7.00499H35.193L35.3253 6.87282H35.4576L35.5899 6.74065H35.8545L35.9868 6.60848H36.1191V6.34414L35.9868 6.21197V5.94763L35.3253 5.28678H35.193L35.0607 5.15461H34.3992L34.2668 5.28678H34.1345L33.8699 5.55112H33.7376L33.0761 6.21197V6.34414L32.9438 6.47631V6.74065L32.8115 6.87282H32.6792L32.5469 6.74065V6.60848L32.4146 6.47631V6.34414L32.2823 6.21197H31.7531L31.4885 6.47631V7.00499L31.6208 7.13716V7.26933L32.0177 7.66584V8.06234L31.6208 8.45885H31.4885L31.3562 8.59102H30.5623L30.2977 8.32668H30.1654L30.0331 8.19451V8.06234L29.9008 7.93017V7.13716L30.0331 7.00499V6.74065L30.1654 6.60848V6.34414L31.3562 5.15461H31.4885L31.6208 5.02244H31.7531L32.2823 4.49377L32.15 4.3616V4.22943L32.0177 4.09726H31.3562L31.2238 4.22943H31.0915L30.9592 4.09726L31.0915 3.96509V3.83292L31.2238 3.70075V3.56858L31.3562 3.43641V3.17207L31.2238 3.0399V2.64339L30.8269 2.24688H29.6362L29.5039 2.37905H29.3716V2.51122L29.2393 2.64339V2.77556L29.107 2.90773V3.30424L28.9747 3.43641L28.7101 3.17207H28.5778L28.4455 3.0399H27.7839L27.6516 3.17207H27.5193L27.2547 3.43641V3.56858L27.1224 3.70075V4.3616L26.9901 4.49377V5.02244L27.1224 5.15461V5.41895H27.387L27.6516 5.15461H28.3132L28.5778 5.41895V6.34414L28.4455 6.47631H28.5778L28.7101 6.60848L28.4455 6.87282V7.00499L28.0485 7.4015L28.3132 7.13716H28.4455L28.5778 7.26933L28.1808 7.66584H28.0485L27.9162 7.798H27.7839L27.6516 7.66584H27.2547L27.1224 7.53367H26.8578L26.7255 7.4015H26.5932L26.3286 7.13716L26.4609 7.00499H26.5932V6.47631L26.4609 6.34414V5.94763L26.3286 5.81546V5.41895L26.1963 5.28678V5.02244H26.064L25.7994 4.7581L25.9317 4.89027V5.02244L25.7994 5.15461L25.6671 5.02244H25.5348V5.28678L25.4025 5.41895V5.55112L25.2702 5.68329V5.81546L25.1379 5.94763V6.21197L25.0055 6.34414V6.47631L24.8732 6.60848H24.7409L24.6086 6.74065H23.8148L23.6825 6.60848H23.5502L23.1533 6.21197V6.0798L23.021 5.94763V4.7581L23.1533 4.62594V4.49377L23.4179 4.22943H23.5502L23.6825 4.09726H24.0794L24.6086 4.62594H24.7409L25.0055 4.3616V4.09726L25.1379 3.96509V3.30424L25.0055 3.17207V3.0399L24.8732 2.90773V2.77556L24.7409 2.64339H24.6086L24.4763 2.51122H23.4179L23.2856 2.37905L23.9471 1.7182V1.3217L23.8148 1.18953H23.1533L23.021 1.3217H22.8887L22.7564 1.45387L22.6241 1.3217V1.18953L22.7564 1.05736V0.925187L22.8887 0.793017V0.660848L23.021 0.528678V0.13217H22.8887L22.7564 0H22.3595Z" fill="black"/>
</svg>
